<svg id="Calque_1" data-name="Calque 1" xmlns="http://www.w3.org/2000/svg" xmlns:xlink="http://www.w3.org/1999/xlink" viewBox="0 0 595.28 841.89"><defs><style>.cls-1{fill:#fff;}.cls-2{fill:url(#radial-gradient);}.cls-3{fill:#525252;}.cls-4{fill:none;}</style><radialGradient id="radial-gradient" cx="119.68" cy="177.21" r="455.13" gradientUnits="userSpaceOnUse"><stop offset="0" stop-color="#ffdd10"/><stop offset="1" stop-color="#f2910e"/></radialGradient></defs><rect class="cls-1" x="31.94" y="89" width="536.53" height="633"/><path class="cls-2" d="M441.56,116.5c-4.27,3.18-8.28,6.69-10.55,11.64-2.15,4.67-2.34,10.1-1.89,15.15.36,3.94,3.7,7.38,2.37,11.41-3.21,9.71-18.38,4.09-23,11.83,9.8-1.88,24.65-7.08,34.81.1,1.06-9.51,9.65-14.84,14.21-22.55,1.15,3.7.36,5.86-2.07,9.21.68,1.72,3.38-1.59,3.65-3.45.68,4.91-3.38,11.45-4.71,16.75,4.7,15.5,20-4.87,33.6,3.1-1,.84-.9,1.51.55,1.66-9.26,4.59-18.4,9.35-26.66,15.28-13.71-.29-12.48-11.87-21.56-15.67-16.15-2.75-28.47,13.14-42.22,2-.34-2.28,1.37-1.86,1.32-3.77-7.43-2.63-1.92-12.8,1.49-16.41,2.4,0,1.26,2.75,1.79,4.21,6-2.44,13.54-2.93,19.72-5.17,0-.92.36-1.36,1-1.44-1.81-14-.62-25,3.26-33.91H377.8a165.28,165.28,0,0,1,7.69,38.91c-5.6-1.59-8.18.81-10.74,3.25-3.17,11,2.41,15.82,3.63,25-1.67,2.38-8.24,2.16-11.08,0-3.74-1.39,3.47-2.23,3.09-5.11-1.71-9.81-8.05-33.24,7.44-30.62-.25-11.92-3.14-21.85-6.37-31.51H64.65V587.61H535.76V116.5ZM281.31,288.71c-10.77.2-21.55,1.24-32-2.91-1.93-.76-4.86,3-5.56,3.95-4.26,6.08-14,19.19-14,19.19-6.22,8.07-11,16.72-18.82,22.15-2.29,1.59-9,4.69-11.62,5-4,.42-8.34-2.11-12.46-1.44-10.56,1.71-14.39,20.44-21.87,29.49-8.32,10.05-13.61,11.09-13,11.2-3-.54-6.41.18-4.8-2.79a16.69,16.69,0,0,1-5.32,2.28c4.35-10.53,6.2-12.14,12.45-16.5a3.64,3.64,0,0,1-2.88.32c10.33-11.47,17.49-27.11,30.25-35.36.93-.6,7.06,1.43,8.49,1.53a26.74,26.74,0,0,0,7.42-.41,26.16,26.16,0,0,0,11.3-5.63s11.39-13.71,31-38.42c1.43-1.8,5.22-6.47,7.88-5.62,30.78,9.8,47.47-3.68,66.12-14.53a11.4,11.4,0,0,1,2.51,2.4c3.26,3.35,2,6.88-2.05,10.22a63.45,63.45,0,0,1-12.53,8.66c-4.52,2.19-9.43,2.43-14.15,4C286.14,286,282.66,288.68,281.31,288.71Zm155.56-51.35c-5.35,1.32-16.63-.16-25.3-3.67-7.1-2.87-14.46-8.8-19.43-9.16-6-.44-11.46,8.5-15.4,11.73-7.69,6.31-18.44,9.46-24.2,17.6-8.07.36-13.66,3.08-19.07,7,11,11.27,42.34,1.22,48.77,15.77,2.62,15.26-12.22,18.22-12,33.39-17.67,13.86-45.1,21.54-73.11,13.55,3.05-5.17,20.68,1,24.59-6.07,14.23-2,24.12-9.76,36.75-13.87.58-10.21,8.13-15.2,11.33-24.53-12.1-6.95-39.78-1.76-47.15-13.69-1.13-17.24,13.85-15.15,25.09-21,5.73-3,12.83-10.08,20.24-14.59,7.21-4.4,15.58-12.47,23.38-12.18,12.06.44,22.13,12.71,35,13.2-2.38-5.67-8.69-7.86-12.56-12-4-4.34-6-9.85-10.8-13.37-2.62-.1-3.76,1.77-7.21.58-1-5.82-6.15-11.91-3.82-17.94,4.08.75,2.86,4.63,5.34,7.07,3.41,3.38,11.63,4.13,16,8.95,3.83,4.18,6.63,10.89,11,14.29C430.16,222.76,439.29,226.7,436.87,237.36Z"/><path class="cls-3" d="M198.71,550.34H102.53V389h96.18v19.08H121.94v44.21h76.77v19.07H121.94v59.93h76.77Z"/><path class="cls-3" d="M246.65,550.34H228.22V381.73h18.43Z"/><path class="cls-3" d="M368.22,550.34H349.89v-12.9c-1.64,1.23-3.84,2.95-6.62,5.15a46.91,46.91,0,0,1-8.09,5.26A51.49,51.49,0,0,1,324.59,552a52.09,52.09,0,0,1-14,1.68,33.34,33.34,0,0,1-25.1-10.84Q275.18,532,275.18,515.23q0-13.75,5.34-22.27a36.63,36.63,0,0,1,15.25-13.38,75.86,75.86,0,0,1,24-6.61q14-1.74,30.1-2.6v-3.15a26.28,26.28,0,0,0-2.21-11.48,17,17,0,0,0-6.32-7.15,24.23,24.23,0,0,0-9.41-3.36,73.33,73.33,0,0,0-11.48-.87,70.65,70.65,0,0,0-16.17,2.11,117.27,117.27,0,0,0-18.43,6.12h-1V431.9q5.39-1.63,15.58-3.58a106.87,106.87,0,0,1,20.1-1.95,84.86,84.86,0,0,1,20.15,2.11,37.33,37.33,0,0,1,14.85,7.21,31.62,31.62,0,0,1,9.42,12.9q3.22,7.91,3.23,19.61Zm-18.33-29.8v-33.7q-8.43.54-19.86,1.62A93.58,93.58,0,0,0,312,491.61a29,29,0,0,0-12.85,7.74q-4.91,5.26-4.9,14.47,0,10.41,5.68,15.66t17.36,5.25A38,38,0,0,0,335,530.56,79.33,79.33,0,0,0,349.89,520.54Z"/><path class="cls-3" d="M495.28,550.34H476.85V481.42a132.84,132.84,0,0,0-.88-15.66q-.89-7.32-3.24-11.43a15.42,15.42,0,0,0-7.06-6.77c-3.07-1.49-7.06-2.22-12-2.22a35.34,35.34,0,0,0-15.78,4.11A79.58,79.58,0,0,0,422.14,460v90.38H403.71v-121h18.43v13.43A74.29,74.29,0,0,1,440,430.38a43.19,43.19,0,0,1,18.93-4.44q17.74,0,27.06,11.81t9.31,34Z"/><path class="cls-3" d="M80.13,616H100l.32.32v2.91q0,5.24-6.51,6.36H83.36c-4.34,0-7,.41-8,1.24-2.07,1.22-3.11,3.38-3.11,6.46v19.3H95.39c.31,0,.47.66.47,2q0,5.57-5,7.27a5.41,5.41,0,0,1-2,.28H72.22v25.33l-.28.32H69q-4.31,0-6.15-5.11l-.32-2.16V633.4q0-12.18,11.43-16.53A16.75,16.75,0,0,1,80.13,616Z"/><path class="cls-3" d="M135.09,616h1.24q12.73,0,17,10.67a24.23,24.23,0,0,1,1.24,8.3v34.27q0,14.58-13,18.22l-2.91.32h-6.36q-8.17,0-13.74-8.51a21.34,21.34,0,0,1-2-8.31V633.4q0-10.67,8.78-15.45A21.06,21.06,0,0,1,135.09,616Zm-8.83,17.45v36.12q0,5.7,3.56,7.7a7.64,7.64,0,0,0,3.71.92h3.56q7.71,0,7.71-9.86V634.64q0-7-4.32-8.35a24.25,24.25,0,0,0-4.95-.75Q126.26,625.54,126.26,633.4Z"/><path class="cls-3" d="M171,616h1.84a7.91,7.91,0,0,1,6,2.32H179A14.47,14.47,0,0,1,187.3,616h2q10.23,0,13.58,4.16,5.55,5.39,5.56,12.22v17.41a17.22,17.22,0,0,1-4.8,12.22q5,4.56,5,15.26v10.19l-.32.32h-1.72q-5.52,0-7.39-4.48l-.32-2.31v-6.63q0-5.55-5.39-7.27l-2.8-.32H180.35v20.69l-.28.32h-3q-4.68,0-6.31-5.71l-.16-1.4V616.27Zm9.39,17.89V657H191l.64.16a8.8,8.8,0,0,0,5.07-2.15q2.16-2.32,2.16-8.35v-13q0-6.63-5.87-8l-1.84-.12h-1.08c-4.31,0-7.1,1-8.35,2.91A8.92,8.92,0,0,0,180.35,633.84Z"/><path class="cls-3" d="M225.16,615.79h.6q5.4,0,7,2.32,4.2-2.33,11.91-2.32,8.42,0,13.3,5a17.22,17.22,0,0,1,12.38-5h3.08q12.34,0,16.57,10.83,1.08,2.63,1.08,8.18v52.61l-.32.32h-2q-5.64,0-7.28-5.55l-.16-2.36V633.44q0-5.67-3.87-7.15a14.66,14.66,0,0,0-5.87-.91h-.8q-8,0-8,9.74v52.29l-.32.32h-1.68q-7.74,0-7.74-7.91V632.33q0-7-9.75-7-8.67,0-8.67,8.06V678l-.16,9.59-.16.16h-2.75q-4.68,0-6.52-5.11l-.16-1.24V616.11Z"/><path class="cls-3" d="M307.65,615.79h21q11.74,0,15.9,11.22a22.5,22.5,0,0,1,.91,5.44v55l-.31.32h-.92q-6.75,0-8.11-5a10.7,10.7,0,0,1-.48-3.88V662H317v25.21l-.31.32H314c-3.14,0-5.27-1.66-6.39-5l-.32-2.63V616.11Zm9.34,9.67v26.92h18.66V632.29q0-5.4-5.75-6.67l-1.88-.16Z"/><path class="cls-3" d="M367.88,615.79h31.64l.32.32v2.8q0,4.4-5,6.19l-1.39.16h-7.43v62q0,.48-3.12.48-6.68-.79-6.67-6.67v-55.8H361.69q0-7.83,5-9.15Z"/><path class="cls-3" d="M415.94,615.79h1.4q5.63,0,7.54,4.48a6,6,0,0,1,.44,2.47v64.67l-.12.16v.16q-9.58,0-9.58-7.71V616.11Z"/><path class="cls-3" d="M460,616h1.23q12.75,0,17,10.67a24.48,24.48,0,0,1,1.24,8.3v34.27q0,14.58-13,18.22l-2.92.32h-6.35q-8.19,0-13.74-8.51a21.37,21.37,0,0,1-2-8.31V633.4q0-10.67,8.79-15.45A21,21,0,0,1,460,616Zm-8.83,17.45v36.12q0,5.7,3.55,7.7a7.71,7.71,0,0,0,3.72.92H462q7.71,0,7.71-9.86V634.64q0-7-4.31-8.35a24.47,24.47,0,0,0-5-.75Q451.14,625.54,451.13,633.4Z"/><path class="cls-3" d="M498.94,615.79a7.82,7.82,0,0,1,5.11,2.16q3.07-2.16,10.51-2.16h.16q12.66,0,17,9a19.13,19.13,0,0,1,1.72,7.86v54.77l-.32.32H531q-5.52,0-7.11-5.71V634.69q0-6.65-3.56-8.23-2-1.08-6.67-1.08-8.36,0-8.35,8.66v53.37l-.32.32h-2.32q-5.41,0-6.95-5.43l-.16-1.52V616.39C495.54,616.1,496.68,615.89,498.94,615.79Z"/><path class="cls-4" d="M312.32,272.8c4.05-3.34,5.3-6.87,2.05-10.22a11.63,11.63,0,0,0-2.51-2.4c-18.66,10.85-35.34,24.33-66.13,14.53-2.66-.85-6.45,3.82-7.88,5.62-19.64,24.71-31,38.42-31,38.42a26.19,26.19,0,0,1-11.31,5.63,26.69,26.69,0,0,1-7.41.41c-1.44-.1-7.56-2.13-8.5-1.53-12.75,8.25-19.92,23.89-30.25,35.36a3.64,3.64,0,0,0,2.88-.32c-6.25,4.36-8.09,6-12.45,16.5a16.59,16.59,0,0,0,5.32-2.28c-1.61,3,1.83,2.25,4.81,2.79-.59-.11,4.7-1.15,13-11.2,7.49-9.05,11.32-27.78,21.87-29.49,4.12-.67,8.51,1.86,12.46,1.44,2.61-.28,9.33-3.38,11.62-5,7.81-5.43,12.6-14.08,18.83-22.15,0,0,9.72-13.11,14-19.19.69-1,3.63-4.71,5.55-3.95,10.45,4.15,21.23,3.11,32,2.91,1.35,0,4.83-2.72,6.38-3.24,4.71-1.58,9.62-1.82,14.15-4S308.41,276,312.32,272.8Z"/><path class="cls-4" d="M422.35,218.29c-4.38-3.4-7.18-10.11-11-14.29-4.39-4.82-12.61-5.57-16-8.95-2.48-2.44-1.25-6.32-5.34-7.07-2.32,6,2.84,12.12,3.83,17.94,3.44,1.19,4.58-.68,7.2-.58,4.8,3.52,6.78,9,10.8,13.37,3.87,4.19,10.19,6.38,12.57,12-12.91-.49-23-12.76-35-13.2-7.8-.29-16.17,7.78-23.39,12.18-7.41,4.51-14.51,11.57-20.24,14.59-11.23,5.89-26.22,3.8-25.08,21,7.36,11.93,35,6.74,47.14,13.69-3.2,9.33-10.75,14.32-11.32,24.53-12.64,4.11-22.52,11.89-36.76,13.87-3.91,7.09-21.54.9-24.59,6.07,28,8,55.45.31,73.11-13.55-.25-15.17,14.58-18.13,12-33.39-6.43-14.55-37.81-4.5-48.76-15.77,5.4-3.88,11-6.6,19.07-7,5.75-8.14,16.51-11.29,24.2-17.6,3.94-3.23,9.42-12.17,15.39-11.73,5,.36,12.33,6.29,19.44,9.16,8.67,3.51,20,5,25.3,3.67C437.24,226.7,428.1,222.76,422.35,218.29Z"/><path class="cls-3" d="M377.85,148c-15.49-2.62-9.15,20.81-7.44,30.62.38,2.88-6.83,3.72-3.09,5.11,2.84,2.12,9.41,2.34,11.08,0-1.22-9.22-6.8-14.09-3.63-25,2.56-2.44,5.14-4.84,10.74-3.25a165.28,165.28,0,0,0-7.69-38.91h-6.34C374.71,126.2,377.6,136.12,377.85,148Z"/><path class="cls-3" d="M423.41,150.44c-.63.08-1,.52-1,1.44-6.18,2.24-13.68,2.73-19.72,5.17-.53-1.46.61-4.17-1.79-4.21-3.41,3.61-8.92,13.78-1.49,16.41.05,1.91-1.66,1.49-1.32,3.77,13.75,11.11,26.07-4.78,42.22-2,9.08,3.8,7.85,15.38,21.56,15.67,8.26-5.92,17.4-10.69,26.66-15.27-1.45-.16-1.56-.83-.55-1.67-13.62-8-28.9,12.41-33.6-3.09,1.33-5.3,5.39-11.84,4.71-16.76-.27,1.86-3,5.17-3.65,3.45,2.43-3.35,3.22-5.5,2.07-9.21-4.56,7.71-13.15,13-14.22,22.55-10.15-7.18-25-2-34.8-.1,4.63-7.73,19.8-2.12,23-11.83,1.33-4-2-7.46-2.37-11.41-.45-5-.26-10.47,1.89-15.15,2.27-4.95,6.28-8.46,10.55-11.64H426.67C422.79,125.49,421.6,136.42,423.41,150.44Z"/><path class="cls-3" d="M297,323.53c28,8,55.45.31,73.11-13.55-.26-15.17,14.58-18.13,12-33.39-6.43-14.55-37.81-4.5-48.77-15.77,5.41-3.88,11-6.6,19.07-7,5.76-8.14,16.51-11.29,24.2-17.6,3.95-3.23,9.43-12.17,15.4-11.73,5,.36,12.33,6.29,19.43,9.16,8.67,3.51,20,5,25.3,3.67,2.43-10.66-6.71-14.6-12.46-19.07-4.38-3.41-7.18-10.11-11-14.29-4.39-4.82-12.6-5.57-16-8.95-2.48-2.44-1.25-6.32-5.34-7.07-2.33,6,2.84,12.12,3.83,17.94,3.44,1.19,4.58-.68,7.2-.58,4.8,3.52,6.77,9,10.8,13.37,3.87,4.19,10.18,6.38,12.56,12-12.9-.49-23-12.76-35-13.2-7.81-.29-16.18,7.78-23.39,12.18-7.41,4.5-14.51,11.57-20.24,14.59-11.23,5.89-26.22,3.8-25.08,21,7.36,11.93,35,6.74,47.14,13.69-3.2,9.33-10.75,14.32-11.33,24.53-12.63,4.11-22.51,11.88-36.75,13.87C317.68,324.55,300.05,318.36,297,323.53Z"/><path class="cls-3" d="M141.68,374.8a16.59,16.59,0,0,0,5.32-2.28c-1.61,3,1.83,2.25,4.81,2.79-.59-.11,4.7-1.15,13-11.2,7.49-9.05,11.31-27.78,21.87-29.49,4.12-.67,8.51,1.86,12.46,1.43,2.61-.27,9.33-3.38,11.62-5,7.8-5.43,12.6-14.08,18.82-22.15,0,0,9.72-13.11,14-19.19.7-1,3.63-4.71,5.56-3.95,10.45,4.15,21.23,3.11,32,2.91,1.34,0,4.82-2.72,6.37-3.24,4.72-1.58,9.63-1.82,14.16-4a63.68,63.68,0,0,0,12.52-8.66c4.05-3.34,5.31-6.88,2.06-10.22a11.7,11.7,0,0,0-2.52-2.4c-18.65,10.85-35.33,24.33-66.12,14.53-2.66-.85-6.45,3.82-7.88,5.62-19.64,24.71-31,38.42-31,38.42a26.16,26.16,0,0,1-11.3,5.63,27.13,27.13,0,0,1-7.42.41c-1.43-.1-7.56-2.13-8.49-1.53-12.76,8.25-19.92,23.89-30.25,35.36a3.64,3.64,0,0,0,2.88-.32C147.88,362.66,146,364.27,141.68,374.8Z"/></svg>